<?xml version="1.0" encoding="UTF-8" standalone="no"?>
<!-- Created with Inkscape (http://www.inkscape.org/) -->

<svg
   xmlns:dc="http://purl.org/dc/elements/1.1/"
   xmlns:cc="http://creativecommons.org/ns#"
   xmlns:rdf="http://www.w3.org/1999/02/22-rdf-syntax-ns#"
   xmlns:svg="http://www.w3.org/2000/svg"
   xmlns="http://www.w3.org/2000/svg"
   xmlns:sodipodi="http://sodipodi.sourceforge.net/DTD/sodipodi-0.dtd"
   xmlns:inkscape="http://www.inkscape.org/namespaces/inkscape"
   width="128pt"
   height="128pt"
   viewBox="0 0 159.99999 159.99999"
   id="svg2"
   version="1.1"
   inkscape:version="0.91 r13725"
   sodipodi:docname="saladbowl.svg"
   inkscape:export-filename="/Users/simon/projects/saladbowl-js/public/images/favicon.png"
   inkscape:export-xdpi="90"
   inkscape:export-ydpi="90">
  <defs
     id="defs4">
    <mask
       maskUnits="userSpaceOnUse"
       id="mask3381">
      <rect
         y="901.04871"
         x="0.77791977"
         height="53.330193"
         width="156.06857"
         id="rect3383"
         style="fill:#ffffff;fill-opacity:1;stroke:none;stroke-opacity:1" />
    </mask>
  </defs>
  <sodipodi:namedview
     id="base"
     pagecolor="#ffffff"
     bordercolor="#666666"
     borderopacity="1.0"
     inkscape:pageopacity="0.0"
     inkscape:pageshadow="2"
     inkscape:zoom="4.3630862"
     inkscape:cx="49.431566"
     inkscape:cy="83.092081"
     inkscape:document-units="px"
     inkscape:current-layer="layer1"
     showgrid="false"
     inkscape:showpageshadow="false"
     units="pt"
     inkscape:window-width="1440"
     inkscape:window-height="851"
     inkscape:window-x="0"
     inkscape:window-y="1"
     inkscape:window-maximized="1" />
  <metadata
     id="metadata7">
    <rdf:RDF>
      <cc:Work
         rdf:about="">
        <dc:format>image/svg+xml</dc:format>
        <dc:type
           rdf:resource="http://purl.org/dc/dcmitype/StillImage" />
        <dc:title></dc:title>
      </cc:Work>
    </rdf:RDF>
  </metadata>
  <g
     inkscape:label="Layer 1"
     inkscape:groupmode="layer"
     id="layer1"
     transform="translate(0,-892.36222)">
    <g
       id="g3385"
       transform="translate(-0.07141747,5.4352916)">
      <g
         transform="matrix(1.0896192,0,0,1.0896192,-7.1759368,-86.655233)"
         mask="url(#mask3381)"
         style="fill:#2ca02c"
         id="g4319">
        <g
           style="fill:#2ca02c"
           transform="translate(27.274269,24.70128)"
           id="g4235">
          <g
             style="fill:#2ca02c"
             id="g4241"
             transform="matrix(0.99337114,-0.29490162,0.30658115,0.95552762,-308.60222,64.030851)">
            <path
               sodipodi:nodetypes="cccsc"
               inkscape:connector-curvature="0"
               id="path4237"
               d="M 43.581433,941.08892 C 26.211884,942.76426 23.621348,920.42275 22.417824,895.82725 l 0,0 c 9.243308,8.91044 22.208777,18.09527 27.554516,26.7184 4.117345,6.64163 3.714451,12.95006 -6.390907,18.54327 z"
               style="fill:#2ca02c;fill-opacity:1;fill-rule:evenodd;stroke:none;stroke-width:1px;stroke-linecap:butt;stroke-linejoin:miter;stroke-opacity:1" />
            <path
               sodipodi:nodetypes="cccc"
               inkscape:connector-curvature="0"
               id="path4239"
               d="m 24.638523,901.55154 c 7.374234,12.63407 15.483122,26.61781 21.888176,37.70267 l 0,0 0,0"
               style="fill:#2ca02c;fill-rule:evenodd;stroke:#ffffff;stroke-width:0.79999989;stroke-linecap:round;stroke-linejoin:miter;stroke-miterlimit:4;stroke-dasharray:none;stroke-opacity:1" />
          </g>
          <g
             style="fill:#2ca02c"
             transform="matrix(0.87167456,0.52507267,-0.5665348,0.80788063,529.3834,158.55287)"
             id="g4245">
            <path
               style="fill:#2ca02c;fill-opacity:1;fill-rule:evenodd;stroke:none;stroke-width:1px;stroke-linecap:butt;stroke-linejoin:miter;stroke-opacity:1"
               d="M 43.581433,941.08892 C 26.211884,942.76426 23.621348,920.42275 22.417824,895.82725 l 0,0 c 9.243308,8.91044 22.208777,18.09527 27.554516,26.7184 4.117345,6.64163 3.714451,12.95006 -6.390907,18.54327 z"
               id="path4247"
               inkscape:connector-curvature="0"
               sodipodi:nodetypes="cccsc" />
            <path
               style="fill:#2ca02c;fill-rule:evenodd;stroke:#ffffff;stroke-width:0.79999989;stroke-linecap:round;stroke-linejoin:miter;stroke-miterlimit:4;stroke-dasharray:none;stroke-opacity:1"
               d="m 24.638523,901.55154 c 7.374234,12.63407 15.483122,26.61781 21.888176,37.70267 l 0,0 0,0"
               id="path4249"
               inkscape:connector-curvature="0"
               sodipodi:nodetypes="cccc" />
          </g>
          <g
             style="fill:#2ca02c"
             id="g4251"
             transform="matrix(-0.9783398,-0.36125236,-0.35160983,1.0051697,457.58224,12.616869)">
            <path
               sodipodi:nodetypes="cccsc"
               inkscape:connector-curvature="0"
               id="path4253"
               d="M 43.581433,941.08892 C 26.211884,942.76426 23.621348,920.42275 22.417824,895.82725 l 0,0 c 9.243308,8.91044 22.208777,18.09527 27.554516,26.7184 4.117345,6.64163 3.714451,12.95006 -6.390907,18.54327 z"
               style="fill:#2ca02c;fill-opacity:1;fill-rule:evenodd;stroke:none;stroke-width:1px;stroke-linecap:butt;stroke-linejoin:miter;stroke-opacity:1" />
            <path
               sodipodi:nodetypes="cccc"
               inkscape:connector-curvature="0"
               id="path4255"
               d="m 24.638523,901.55154 c 7.374234,12.63407 15.483122,26.61781 21.888176,37.70267 l 0,0 0,0"
               style="fill:#2ca02c;fill-rule:evenodd;stroke:#ffffff;stroke-width:0.79999989;stroke-linecap:round;stroke-linejoin:miter;stroke-miterlimit:4;stroke-dasharray:none;stroke-opacity:1" />
          </g>
          <g
             style="fill:#2ca02c"
             transform="matrix(-1.0409582,0.11622693,0.1729464,1.0474161,-44.760457,-50.350485)"
             id="g4257">
            <path
               style="fill:#2ca02c;fill-opacity:1;fill-rule:evenodd;stroke:none;stroke-width:1px;stroke-linecap:butt;stroke-linejoin:miter;stroke-opacity:1"
               d="M 43.581433,941.08892 C 26.211884,942.76426 23.621348,920.42275 22.417824,895.82725 l 0,0 c 9.243308,8.91044 22.208777,18.09527 27.554516,26.7184 4.117345,6.64163 3.714451,12.95006 -6.390907,18.54327 z"
               id="path4259"
               inkscape:connector-curvature="0"
               sodipodi:nodetypes="cccsc" />
            <path
               style="fill:#2ca02c;fill-rule:evenodd;stroke:#ffffff;stroke-width:0.79999989;stroke-linecap:round;stroke-linejoin:miter;stroke-miterlimit:4;stroke-dasharray:none;stroke-opacity:1"
               d="m 24.638523,901.55154 c 7.374234,12.63407 15.483122,26.61781 21.888176,37.70267 l 0,0 0,0"
               id="path4261"
               inkscape:connector-curvature="0"
               sodipodi:nodetypes="cccc" />
          </g>
          <g
             style="fill:#2ca02c"
             id="g4263"
             transform="matrix(-0.97050423,0.36095775,0.46980845,1.1779642,-338.17564,-182.75908)">
            <path
               sodipodi:nodetypes="cccsc"
               inkscape:connector-curvature="0"
               id="path4265"
               d="M 43.581433,941.08892 C 26.211884,942.76426 23.621348,920.42275 22.417824,895.82725 l 0,0 c 9.243308,8.91044 22.208777,18.09527 27.554516,26.7184 4.117345,6.64163 3.714451,12.95006 -6.390907,18.54327 z"
               style="fill:#2ca02c;fill-opacity:1;fill-rule:evenodd;stroke:none;stroke-width:1px;stroke-linecap:butt;stroke-linejoin:miter;stroke-opacity:1" />
            <path
               sodipodi:nodetypes="cccc"
               inkscape:connector-curvature="0"
               id="path4267"
               d="m 24.638523,901.55154 c 7.374234,12.63407 15.483122,26.61781 21.888176,37.70267 l 0,0 0,0"
               style="fill:#2ca02c;fill-rule:evenodd;stroke:#ffffff;stroke-width:0.79999989;stroke-linecap:round;stroke-linejoin:miter;stroke-miterlimit:4;stroke-dasharray:none;stroke-opacity:1" />
          </g>
        </g>
        <g
           style="fill:#2ca02c"
           id="g4231"
           transform="matrix(1.0396048,0,0,1,6.8769959,26.930476)">
          <path
             sodipodi:nodetypes="cccsc"
             inkscape:connector-curvature="0"
             id="path4214"
             d="M 43.581433,941.08892 C 26.211884,942.76426 23.621348,920.42275 22.417824,895.82725 l 0,0 c 9.243308,8.91044 22.208777,18.09527 27.554516,26.7184 4.117345,6.64163 3.714451,12.95006 -6.390907,18.54327 z"
             style="fill:#2ca02c;fill-opacity:1;fill-rule:evenodd;stroke:none;stroke-width:1px;stroke-linecap:butt;stroke-linejoin:miter;stroke-opacity:1" />
          <path
             sodipodi:nodetypes="cccc"
             inkscape:connector-curvature="0"
             id="path4229"
             d="m 24.638523,901.55154 c 7.374234,12.63407 15.483122,26.61781 21.888176,37.70267 l 0,0 0,0"
             style="fill:#2ca02c;fill-rule:evenodd;stroke:#ffffff;stroke-width:0.79999989;stroke-linecap:round;stroke-linejoin:miter;stroke-miterlimit:4;stroke-dasharray:none;stroke-opacity:1" />
        </g>
      </g>
      <path
         inkscape:connector-curvature="0"
         id="path4195"
         d="m 4.9354358,955.60908 c -3.9186661,0 -3.142599,6.09319 -1.785528,11.37929 l 153.7810322,0 c 1.45605,-5.47251 2.20575,-11.37929 -1.81533,-11.37929 l -150.1801742,0 z m 0.053204,17.43391 c 12.2998202,36.34031 41.6485132,61.00201 74.9985772,61.04851 33.314363,-0.012 62.663463,-24.574 75.015593,-60.82931 0.0221,-0.0648 0.0498,-0.15268 0.0724,-0.2192 l -150.0865302,0 z"
         style="fill:#2b2200;fill-opacity:1;stroke:none;stroke-opacity:1" />
    </g>
  </g>
</svg>
